# xmcd CD database file
#
# Track frame offsets:
#	150
#	12840
#	35442
#	54342
#	69550
#	90725
#	110682
#	140327
#	160285
#
# Disc length: 2198 seconds
#
# Revision: 0
# Processed by: cddbd v1.5.1PL0 Copyright (c) Steve Scherf et al.
# Submitted via: CDex 1.51
#
DISCID=72089409
DTITLE=Nana - Nana
DYEAR=1990
DGENRE=JPop
TTITLE0=I Think We're Alone Now
TTITLE1=French Kissin' In The USA
TTITLE2=ガラスの涙
TTITLE3=I Go To Pieces
TTITLE4=Just Walkin' That Road
TTITLE5=愛してる
TTITLE6=Sweet Rainy Days
TTITLE7=Blue
TTITLE8=ひまわりの夢
EXTD=YEAR: 1990
EXTT0=
EXTT1=
EXTT2=
EXTT3=
EXTT4=
EXTT5=
EXTT6=
EXTT7=
EXTT8=
PLAYORDER=
